<?xml version="1.0" encoding="utf-8"?>
<!-- Generator: Adobe Illustrator 21.1.0, SVG Export Plug-In . SVG Version: 6.00 Build 0)  -->
<svg version="1.1" id="Capa_1" xmlns="http://www.w3.org/2000/svg" xmlns:xlink="http://www.w3.org/1999/xlink" x="0px" y="0px"
	 viewBox="0 0 482.9 482.9" style="enable-background:new 0 0 482.9 482.9;" xml:space="preserve">
<style type="text/css">
	.st0{fill:#F2E5D6;}
</style>
<path class="st0" d="M482.1,131.2c-1.1-2.3-3.3-3.8-5.7-4.2l-40.4-5.5c-5.2-0.7-9.4-4.5-10.7-9.6c-0.5-2-1.8-3.7-3.6-4.7
	c-1.4-0.8-35.5-19.3-64.3-1.1c-24.2,15.3-47.8,59.4-53,69.6c-12.7,7.2-44.2,21.9-64.4,18.6c-23.1-3.8-109.4-13.8-145.4-18
	c-15.9-1.8-31.7,0.5-45.6,6.6c-9.7,4.3-17.5,9.8-23.4,16.5c-2.5,2.1-11,9.9-17.5,21.8c-10.2,18.8-10.7,38.9-1.4,58.3
	c3.8,8,5.5,15.9,4.9,23.5c-0.3,4.1,2.8,7.7,6.9,8c0.2,0,0.4,0,0.6,0c3.9,0,7.2-3,7.5-6.9c0.8-10.2-1.4-20.7-6.3-31.1
	c-4.2-8.8-5.5-17-5-24.4c2.4,12.7,7.6,28.5,17.4,48.1c2.2,4.4,1.5,9.7-1.8,13.4l-9.5,10.5c-2.3,2.5-2.6,6.2-0.8,9.1
	c5.2,8.2,18.6,32.6,18.2,47.1c-0.1,2,0.7,4,2.1,5.5s3.4,2.3,5.4,2.3h30.7c4.3,0,8.4-1.7,11.4-4.8s4.6-7.2,4.4-11.6
	c-0.3-9.7-8.2-17.3-17.9-17.3h-2.1l-8.9-16.8c-1.9-4.4-0.9-9.5,2.6-12.8c8.8-8.4,16.7-17.6,23.6-27.6c13.6,1.1,57.5,5.5,93.6,18.5
	c9.3,3.3,17.1,6.2,24,8.8c23.5,8.8,35.8,13.4,52.4,13.6c1.8,15.1,4.9,28.9,6.9,37.1c1.9,7.6,8.7,12.9,16.6,12.9h24.1
	c8.7,0,15.9-6.5,16.9-15.2c1-9.4-5.5-18-14.9-19.6c-2.2-0.4-4.2-0.8-6.1-1.3c-0.2-4.5,0.3-10.6,1.2-16.8
	c35.7-12.6,63.2-41.8,73.7-78.3l11.5-39.8c8.8-6.3,15.7-14.9,20.1-24.9l3.3-7.4c1.4-3.1,4.6-5.2,8-5l8,0.4
	c17.8,0.8,34.5-8.2,43.6-23.6l8.9-15C483.1,136.2,483.2,133.5,482.1,131.2z M460,145.7c-6.3,10.6-17.8,16.8-30,16.2l-8-0.4
	c-9.6-0.4-18.6,5.2-22.5,14l-3.3,7.4c-2.3,5.2-5.5,9.9-9.5,13.9c0.8-4.3,0.5-8.7-1-13c-2.4-6.9-5.3-13-7.6-17.9
	c-1.3-2.7-2.4-5.1-3.1-6.8c-1.5-4,1.4-10,2.6-11.8c2.3-3.4,1.3-8.1-2.1-10.4c-3.4-2.3-8.1-1.4-10.4,2.1c-0.9,1.4-8.7,13.6-4.1,25.5
	c0.9,2.2,2.1,4.8,3.5,7.8c2.2,4.6,4.9,10.3,7.1,16.5c1.3,3.6,0.5,7.4-2.1,10.1c-2.5,2.7-6.1,3.8-9.7,2.8c-4.7-1.3-20-6.6-19.6-21.7
	c0.1-4.1-3.1-7.6-7.3-7.7c-4.2-0.1-7.6,3.1-7.7,7.3c-0.5,17.4,11.3,31.4,30.7,36.6c2.1,0.6,4.3,0.9,6.5,0.9c4.1,0,8.2-1,11.8-3
	L364,249.5c-8.3,28.8-28.8,52.4-55.7,64.8c0.5-1.8,1-3.3,1.4-4.2c1.9-2.2,2.4-5.5,1-8.3c-1.9-3.7-6.4-5.2-10.1-3.4
	c-2.3,1.2-5.8,2.9-9.9,25.8c-1.5,8.2-3.6,23.3-1.3,32.2c0.6,2.4,2.4,4.3,4.7,5.2c3.6,1.3,8,2.4,12.8,3.2c1.5,0.3,2.6,1.7,2.5,3.2
	c-0.1,1-0.9,1.7-1.9,1.7h-24.1c-1,0-1.8-0.6-2-1.6c-3.3-13-13.3-57.2-4.3-81.7c1.4-3.9-0.6-8.2-4.5-9.6c-3.9-1.4-8.2,0.6-9.6,4.5
	c-4,11-5,24.7-4.4,38.4c-13.5-0.5-24.3-4.6-45.9-12.6c-6.9-2.6-14.8-5.5-24.2-8.9c-32.8-11.8-70.5-16.7-89.6-18.6
	c12-20.2,12.4-24.1,12.6-26.4c0.3-4.1-2.7-7.8-6.9-8.1c-4.1-0.3-7.7,2.6-8.1,6.7c-0.2,0.7-1.7,5.9-14.6,26.8
	c-7.2,11.7-16,22.5-26,32c-8.2,7.7-10.6,19.8-5.9,30.1c0.1,0.1,0.1,0.3,0.2,0.4L61.4,362c1.3,2.5,3.9,4,6.6,4h6.6
	c1.6,0,2.8,1.2,2.9,2.8c0,0.2-0.1,0.4-0.2,0.6s-0.4,0.3-0.6,0.3H53.1c-2.3-16-11.9-34.2-17-42.9l5.7-6.4c7.5-8.3,9.1-20.1,4.1-30.1
	c-15.6-31.4-21.1-57.4-15-71.4c4.1-9.4,12.2-16.8,24-22c11.5-5.1,24.6-7,37.9-5.5c28,3.2,121.2,14.1,144.7,17.9
	c2.8,0.5,5.7,0.7,8.6,0.7c29.9,0,66.1-21.3,67.8-22.3c1.2-0.7,2.3-1.8,2.9-3.1c0.3-0.5,25.4-51,48.6-65.6c17.4-11,39.2-2.9,46.5,0.3
	c0.1,0.2,0.2,0.3,0.2,0.5l-6.6,2.4c-3.9,1.4-5.9,5.7-4.5,9.6c1.1,3,4,4.9,7,4.9c0.9,0,1.7-0.1,2.6-0.5l11.6-4.2
	c3.5,2.3,7.4,3.9,11.8,4.5l29.2,4L460,145.7z"/>
</svg>
